<?xml version="1.0" encoding="UTF-8"?>
<svg id="uuid-93cc97d7-b664-4eeb-af11-8ffc9c288f59"
    xmlns="http://www.w3.org/2000/svg" width="500" height="220" viewBox="0 0 500 220">
    <defs>
        <style>.uuid-ae6a795a-afb6-4776-802c-ca45b2d74726{fill:#fff;}.uuid-65fc0126-97ab-455a-a15e-7a19418feb22{fill:#404040;}.uuid-62c1fbf3-274f-4359-beaa-be53e597d127{fill:#ececec;}.uuid-62c1fbf3-274f-4359-beaa-be53e597d127,.uuid-9c450eb0-8e0e-4b49-98b9-9da5a3fd6972{stroke:#404040;}.uuid-9c450eb0-8e0e-4b49-98b9-9da5a3fd6972{fill:none;}</style>
    </defs>
    <rect class="uuid-ae6a795a-afb6-4776-802c-ca45b2d74726" width="500" height="220"/>
    <path class="uuid-65fc0126-97ab-455a-a15e-7a19418feb22" d="m149,169.5c.2,0,.3.1.5.1.1.1.2.3.2.4-.2.9-.3,1.7-.6,2.6-.4,1.5-.6,2.4-.6,2.6v.7c0,.3,0,.6.1.9.1.2.2.4.4.5.2.2.5.2.8.2.9,0,1.7-.8,2.3-2.4.3-.7.5-1.4.6-2.2v-.3c0-.6-.2-1.2-.7-1.6-.2-.1-.3-.4-.3-.6,0-.3.1-.6.4-.8.2-.2.5-.3.8-.4h.1c.6.1.8.6.8,1.5-.1.8-.2,1.5-.4,2.3s-.5,1.7-.8,2.5c-.7,1.7-1.5,2.6-2.6,2.8h-.4c-.5,0-1.1-.1-1.6-.3-.4-.2-.8-.5-1-.9-.2.3-.5.6-.9.9-.4.2-.8.3-1.2.3-.8,0-1.5-.2-2.1-.6-.6-.5-.9-1.2-.8-1.9v-.7c.2-1,.5-2,.9-2.9.2-.5.4-1.1.4-1.6,0-.1,0-.3-.1-.4,0-.1-.1-.1-.2-.1h0c-.3,0-.7.2-.9.4-.5.5-.8,1.2-1,1.9v.2h-.6q-.1-.1-.1-.2c0-.1,0-.2.1-.3.1-.3.2-.7.4-1,.3-.9,1-1.5,1.9-1.8h.5c.5,0,.9.1,1.3.5.3.3.5.7.5,1.2s-.2.9-.4,1.3c-.5,1.1-.8,2.2-1,3.3v.3c0,.4.1.9.4,1.2.3.3.7.5,1.1.4.6,0,1.1-.4,1.5-1.2l.1-.2v-.5c0-.4,0-.6.1-.7s.1-.4.3-1.2.4-1.6.6-2.4c.1-.5.2-.9.4-1.4.1-.3.4-.5.8-.4Z"/>
    <path class="uuid-65fc0126-97ab-455a-a15e-7a19418feb22" d="m52.7,96c-.7,0-1.4-.2-2-.7-.5-.5-.8-1.2-.7-1.9v-.7c.2-1,.5-2,.9-2.9l.3-1c.1-.2.1-.4.1-.7s-.1-.5-.4-.5c-.1,0-.2,0-.3.1-.7.2-1.2,1-1.5,2.3v.2h-.6q-.1-.1-.1-.2c0-.1,0-.2.1-.3.2-.9.8-1.7,1.5-2.4.4-.3.8-.4,1.2-.4.5,0,.9.1,1.3.4.3.3.5.7.5,1.2,0,.2,0,.4-.1.5-.1.3-.2.6-.3.9-.5,1.1-.8,2.3-1,3.6,0,.3,0,.6.1.9.1.6.7.9,1.3.9.4,0,.7-.1,1-.3.8-.5,1.5-1.8,2.1-3.8.1-.3.1-.6.2-.9,0-.6-.3-1.2-.8-1.6-.2-.1-.3-.3-.3-.5,0-.6.6-1.2,1.2-1.2.3,0,.6.2.7.4.2.3.3.7.3,1.1-.1.8-.2,1.5-.4,2.3-.2.9-.6,1.8-1,2.7-.9,1.6-2,2.5-3.3,2.5Z"/>
    <path class="uuid-65fc0126-97ab-455a-a15e-7a19418feb22" d="m106.9,114h.4c.7.1,1.3.4,1.7,1,.6,1,.8,2.1.8,3.2v.9c-.2,1.7-.6,3.4-1.4,5-.4.9-.9,1.7-1.6,2.5-.5.6-1.1,1.1-1.8,1.5-.3.2-.7.3-1.1.3h-.1c-.6,0-1.1-.2-1.5-.6-.8-1-1.2-2.3-1.1-3.6,0-.7.1-1.3.2-2,.4-2.4,1.4-4.7,3-6.5.6-.9,1.5-1.5,2.5-1.7Zm.3,7.9l.1-.3h-3.9v.1c-.3,1.2-.5,2.4-.6,3.7-.1.7.1,1.3.5,1.9.1.2.4.2.6.2.5,0,1.1-.4,1.7-1.3.7-1.3,1.3-2.7,1.6-4.3h0Zm1-5.1c0-1.4-.3-2-1.1-2-.6.1-1.1.4-1.4.9-.8,1.1-1.4,2.3-1.7,3.6-.2.5-.3,1-.4,1.5h3.8c.2-.5.3-1,.4-1.6.3-.8.3-1.6.4-2.4h0Z"/>
    <path class="uuid-62c1fbf3-274f-4359-beaa-be53e597d127" d="m100.5,158.8c-3-18.7-16.3-34.1-34.4-39.8l-22.5,47.7,56.9-7.9Z"/>
    <g id="uuid-3a0860c9-231b-4d20-8177-06509a219f05">
        <g>
            <polyline class="uuid-9c450eb0-8e0e-4b49-98b9-9da5a3fd6972" points="100.5 45.9 43.6 166.7 205.5 144.2"/>
            <path class="uuid-65fc0126-97ab-455a-a15e-7a19418feb22" d="m103.1,40.5c-2.2,2.1-5.3,4.5-7.9,5.7l5,.5,3.6,3.6c-.9-2.8-1-6.8-.7-9.8Z"/>
            <path class="uuid-65fc0126-97ab-455a-a15e-7a19418feb22" d="m211.5,143.4c-2.7,1.4-5.9,3.7-7.8,5.9l1-4.9-2.4-4.5c2.5,1.5,6.3,2.8,9.2,3.5Z"/>
        </g>
    </g>
    <g id="uuid-e9b615ad-bb7d-4975-82b5-23af04126b5d">
        <circle class="uuid-65fc0126-97ab-455a-a15e-7a19418feb22" cx="43.6" cy="166.7" r="3"/>
    </g>
    <path class="uuid-65fc0126-97ab-455a-a15e-7a19418feb22" d="m267.3,119.3c-.8,0-1.6-.2-2.2-.7s-.9-1.3-.8-2.1v-.8c.2-1.1.6-2.2,1-3.2l.4-1.1c.1-.2.1-.5.1-.7,0-.4-.1-.6-.4-.6-.1,0-.2,0-.4.1-.7.3-1.3,1.1-1.7,2.5v.2h-.7c-.1-.1-.1-.2-.1-.2,0-.1,0-.2.1-.3.3-1,.8-1.9,1.6-2.6.4-.3.9-.5,1.4-.5s1,.2,1.4.5.6.8.5,1.3c0,.2,0,.4-.1.6-.1.3-.2.7-.3,1-.5,1.3-.9,2.6-1.1,3.9,0,.3,0,.7.1,1,.2.6.8,1,1.4.9.4,0,.7-.1,1-.3.9-.6,1.7-2,2.3-4.2.1-.3.2-.7.2-1,0-.7-.3-1.3-.9-1.7-.2-.1-.3-.4-.3-.6,0-.7.6-1.3,1.3-1.3.3,0,.7.2.8.5.2.4.3.8.3,1.2-.1.9-.2,1.7-.4,2.5-.2,1-.6,2-1,3-1,1.7-2.1,2.7-3.5,2.7Z"/>
    <path class="uuid-65fc0126-97ab-455a-a15e-7a19418feb22" d="m275.5,113.5c0-.4.1-.7.4-1,.2-.2.6-.4.9-.4.4,0,.7.1,1,.4.3.2.4.6.4.9,0,.4-.1.7-.4,1-.2.3-.6.4-.9.4-.4,0-.7-.1-1-.4-.3-.2-.4-.5-.4-.9Z"/>
    <path class="uuid-65fc0126-97ab-455a-a15e-7a19418feb22" d="m290.8,109.5c.2,0,.4.1.5.2s.2.3.2.5c-.2,1-.4,1.9-.6,2.8-.4,1.7-.7,2.7-.7,2.9,0,.3-.1.5,0,.8,0,.3,0,.7.1,1,.1.2.2.4.5.6s.6.3.9.3c1,0,1.9-.9,2.5-2.7.3-.8.5-1.6.7-2.4v-.3c0-.7-.3-1.3-.8-1.8-.2-.2-.4-.4-.4-.7s.2-.7.4-.9c.3-.2.6-.4.9-.4h.1c.6.2.9.7.9,1.6-.1.9-.2,1.7-.4,2.5-.3,1.1-.6,2-.8,2.7-.7,1.8-1.7,2.8-2.9,3.1h-.4c-.6,0-1.2-.1-1.7-.3-.5-.2-.8-.6-1.1-1-.3.4-.6.7-1,1-.4.2-.8.4-1.3.3-.8,0-1.7-.2-2.4-.7-.6-.5-.9-1.3-.9-2.1v-.8c.2-1.1.6-2.2,1-3.2.2-.6.4-1.2.5-1.8v-.4c-.1-.1-.2-.1-.3-.1h-.1c-.4,0-.7.2-1,.5-.5.6-.9,1.3-1.1,2.1v.2h-.7c-.1-.1-.1-.2-.1-.2,0-.1,0-.2.1-.3.1-.3.3-.7.4-1,.4-.9,1.1-1.7,2.1-2h.5c.5,0,1,.2,1.4.5.3.3.5.8.5,1.3-.1.5-.2,1-.4,1.5-.5,1.2-.9,2.4-1.1,3.7v.3c0,.5.1,1,.4,1.4.3.3.8.5,1.2.5.6,0,1.2-.4,1.7-1.3l.1-.2v-.5c0-.3,0-.5.1-.8,0,0,.1-.4.3-1.3s.4-1.8.7-2.7c.1-.5.3-1,.4-1.5.4-.6.7-.9,1.1-.9Z"/>
    <path class="uuid-65fc0126-97ab-455a-a15e-7a19418feb22" d="m304.5,111.4c0-.2.1-.4.3-.4h14c.2.1.3.2.3.4s-.1.3-.3.4h-14c-.1,0-.3-.2-.3-.4Zm0,4.2c0-.2.1-.4.4-.4h14l.1.1.1.1.1.1v.2c0,.2-.1.4-.3.4h-14c-.2-.1-.4-.3-.4-.5Z"/>
    <path class="uuid-65fc0126-97ab-455a-a15e-7a19418feb22" d="m329,124.5c-.2,0-.4-.1-.4-.3v-21.4c.1-.2.2-.3.4-.3s.4.1.4.3v21.3c0,.3-.2.4-.4.4Z"/>
    <path class="uuid-65fc0126-97ab-455a-a15e-7a19418feb22" d="m336.2,124.5c-.2,0-.4-.1-.4-.3v-21.4c.1-.2.2-.3.4-.3s.4.1.4.3v21.3c-.1.3-.2.4-.4.4Z"/>
    <path class="uuid-65fc0126-97ab-455a-a15e-7a19418feb22" d="m345.7,119.3c-.8,0-1.6-.2-2.2-.7s-.9-1.3-.8-2.1v-.8c.2-1.1.6-2.2,1-3.2l.4-1.1c.1-.2.1-.5.1-.7,0-.4-.1-.6-.4-.6-.1,0-.2,0-.4.1-.8.3-1.3,1.1-1.7,2.5v.2h-.7c-.1-.1-.1-.2-.1-.2,0-.1,0-.2.1-.3.3-1,.8-1.9,1.6-2.6.4-.3.9-.5,1.4-.5s1,.2,1.4.5.6.8.5,1.3c0,.2,0,.4-.1.6-.1.3-.2.7-.3,1-.5,1.3-.9,2.6-1.1,3.9,0,.3,0,.7.1,1,.2.6.8,1,1.4.9.4,0,.8-.1,1.1-.3.9-.6,1.7-2,2.3-4.2.1-.3.2-.7.2-1,0-.7-.3-1.3-.9-1.7-.2-.1-.3-.4-.3-.6,0-.3.1-.7.4-.9.2-.3.6-.4.9-.4s.7.2.8.5c.2.4.3.8.3,1.2-.1.9-.2,1.7-.4,2.5-.2,1-.6,2-1.1,3-1,1.7-2.1,2.7-3.5,2.7Z"/>
    <path class="uuid-65fc0126-97ab-455a-a15e-7a19418feb22" d="m355.2,124.5c-.2,0-.4-.1-.4-.3v-21.4c.1-.2.2-.3.4-.3s.4.1.4.3v21.3c-.1.3-.2.4-.4.4Z"/>
    <path class="uuid-65fc0126-97ab-455a-a15e-7a19418feb22" d="m362.4,124.5c-.2,0-.4-.1-.4-.3v-21.4c.1-.2.2-.3.4-.3s.4.1.4.3v21.3c0,.3-.2.4-.4.4Z"/>
    <path class="uuid-65fc0126-97ab-455a-a15e-7a19418feb22" d="m376.2,124.5c-.2,0-.4-.1-.4-.3v-21.4c.1-.2.2-.3.4-.3s.4.1.4.3v21.3c0,.3-.2.4-.4.4Z"/>
    <path class="uuid-65fc0126-97ab-455a-a15e-7a19418feb22" d="m383.4,124.5c-.2,0-.4-.1-.4-.3v-21.4c.1-.2.2-.3.4-.3s.4.1.4.3v21.3c0,.3-.2.4-.4.4Z"/>
    <path class="uuid-65fc0126-97ab-455a-a15e-7a19418feb22" d="m397.5,109.5c.2,0,.4.1.5.2s.2.3.2.5c-.2,1-.4,1.9-.6,2.8-.4,1.7-.7,2.7-.7,2.9v.8c0,.3,0,.7.1,1,.1.2.2.4.5.6s.6.3.9.3c1,0,1.9-.9,2.5-2.7.3-.8.5-1.6.7-2.4v-.3c0-.7-.3-1.3-.8-1.8-.2-.2-.4-.4-.4-.7s.2-.7.4-.9c.2-.2.6-.4.9-.4h.1c.6.2.9.7.9,1.6-.1.9-.2,1.7-.4,2.5-.2.9-.5,1.8-.8,2.7-.7,1.8-1.7,2.8-2.9,3.1h-.4c-.6,0-1.2-.1-1.7-.3-.5-.2-.8-.6-1-1-.3.4-.6.7-1,1-.4.2-.8.4-1.3.3-.8,0-1.7-.2-2.4-.7-.6-.5-.9-1.3-.9-2.1v-.8c.2-1.1.6-2.2,1-3.2.2-.6.4-1.2.5-1.8v-.4c-.1-.1-.2-.1-.2-.1h-.2c-.4,0-.7.2-1,.5-.5.6-.9,1.3-1.1,2.1v.2h-.7c-.1-.1-.1-.2-.1-.2,0-.1,0-.2.1-.3.1-.3.2-.7.4-1,.4-.9,1.1-1.7,2.1-2h.5c.5,0,1,.2,1.4.5s.5.8.5,1.3c-.1.5-.2,1-.4,1.5-.5,1.2-.8,2.4-1,3.7v.3c0,.5.1,1,.4,1.4.3.3.8.5,1.2.5.6,0,1.2-.4,1.7-1.3l.1-.2v-.5c0-.4,0-.7.1-.8.1-.1.1-.4.3-1.3s.4-1.8.7-2.7c.1-.5.3-1,.4-1.5.1-.6.5-.9.9-.9Z"/>
    <path class="uuid-65fc0126-97ab-455a-a15e-7a19418feb22" d="m407.5,124.5c-.2,0-.4-.1-.4-.3v-21.4c.1-.2.2-.3.4-.3s.4.1.4.3v21.3c-.1.3-.2.4-.4.4Z"/>
    <path class="uuid-65fc0126-97ab-455a-a15e-7a19418feb22" d="m414.7,124.5c-.2,0-.4-.1-.4-.3v-21.4c.1-.2.2-.3.4-.3s.4.1.4.3v21.3c0,.3-.2.4-.4.4Z"/>
    <path class="uuid-65fc0126-97ab-455a-a15e-7a19418feb22" d="m432.9,112c-.2.2-.5.3-.9.3-.7,0-1.2-.6-1.1-1.2,0-.3.1-.6.3-.8l.1-.1h-.2c-.4-.1-.7-.1-1.1-.1-.7,0-1.3.2-1.8.7-.8,1-1.1,2.2-1,3.5-.1,1,.2,2,.7,2.8s1.4,1.4,2.4,1.3c.3,0,.7-.1,1-.2.7-.4,1.1-1,1.3-1.7,0-.1.1-.2.1-.2h.7c.1.1.1.2.1.2-.1.5-.3.9-.5,1.3-.7,1-1.9,1.6-3.1,1.6-.7,0-1.4-.2-2.1-.5-1.4-.7-2.4-2.1-2.6-3.7v-1.4c.1-1.3.8-2.5,1.8-3.4.8-.7,1.9-1.1,2.9-1.1,1.9,0,3,.5,3.3,1.5.1.2.1.3.1.5,0,.3-.1.5-.4.7Z"/>
    <path class="uuid-65fc0126-97ab-455a-a15e-7a19418feb22" d="m434.8,114.3c0-1.3.4-2.5,1.3-3.4.8-.9,1.9-1.5,3.1-1.7h.5c1.3,0,2.5.5,3.3,1.4,1,1,1.6,2.3,1.5,3.7,0,.3,0,.7-.1,1-.2.9-.6,1.7-1.2,2.4-.6.7-1.5,1.2-2.4,1.4-.4.1-.8.1-1.1.1-.4,0-.8,0-1.2-.1-1.1-.3-2-.9-2.7-1.8-.7-.8-1.1-1.9-1-3Zm5.2-4.3h-.4c-.4,0-.9.1-1.2.3-.9.5-1.4,1.4-1.5,2.4v1.4c-.1,1,.1,2,.4,3,.4.9,1.3,1.4,2.3,1.3,1.8,0,2.7-1.2,2.7-3.6v-.7c0-.6,0-1.3-.1-1.9-.2-1.2-1.1-2-2.2-2.2Z"/>
    <path class="uuid-65fc0126-97ab-455a-a15e-7a19418feb22" d="m449.3,109.9c-1.4,0-2,.5-2,1.4v.4c.1.3.4.6.7.8.5.2,1,.3,1.5.4.6.1,1.2.2,1.7.5.9.4,1.6,1.2,1.8,2.2v.5c0,.5-.1,1-.3,1.5-.7,1.1-1.9,1.8-3.2,1.6-.8,0-1.6-.3-2.3-.8l-.2.2-.2.2-.3.2-.2.2h-.2c-.1,0-.2-.1-.3-.1v-3.4q0-.2.1-.3h.7c.1.1.1.2.1.3.1.5.3,1,.6,1.5.5.7,1.3,1.1,2.1,1.1,1.4,0,2.1-.6,2.1-1.7,0-.4-.1-.7-.4-1-.2-.3-.6-.5-.9-.6l-1.1-.2c-.6-.1-1.1-.2-1.7-.5-.9-.3-1.5-1.1-1.7-2.1v-.3c0-1.7,1-2.6,3.1-2.8h.5c.5,0,1.1.1,1.5.3l.3.2.2-.2c.2-.2.4-.3.5-.4h.2c.1,0,.2,0,.3.1v2.9l-.1.1h-.6c-.1-.1-.1-.2-.1-.3,0-.6-.2-1.2-.6-1.6-.4-.1-1-.3-1.6-.3Z"/>
    <path class="uuid-65fc0126-97ab-455a-a15e-7a19418feb22" d="m461.1,124.3c0,.1-.1.2-.4.2h-.3l-.6-.5c-2.7-2.4-4-5.9-4-10.5,0-1.7.2-3.3.6-4.9.6-2.1,1.7-4.1,3.3-5.6l.4-.3.3-.2h.3c.1,0,.2,0,.3.1l.1.1c0,.1-.1.2-.2.3-2.3,2.4-3.4,5.9-3.4,10.5s1.1,8.1,3.5,10.5c.1.2.1.3.1.3Z"/>
    <path class="uuid-65fc0126-97ab-455a-a15e-7a19418feb22" d="m469.4,103.5h.4c.8,0,1.4.4,1.9,1.1.6,1.1.9,2.3.9,3.6v.9c-.2,1.9-.7,3.8-1.5,5.5-.5,1-1,1.9-1.8,2.7-.6.7-1.2,1.2-2,1.7-.4.2-.8.3-1.2.3h-.1c-.6,0-1.2-.2-1.6-.7-.9-1.1-1.3-2.5-1.2-3.9,0-.7.1-1.5.2-2.2.4-2.7,1.6-5.2,3.3-7.2.7-.9,1.6-1.5,2.7-1.8Zm.3,8.8l.1-.4h-4.3v.2c-.4,1.3-.6,2.7-.7,4.1-.1.7.1,1.5.5,2.1.2.2.4.3.6.3.6,0,1.2-.5,1.9-1.4,1-1.7,1.6-3.3,1.9-4.9Zm1.1-5.7c0-1.5-.4-2.2-1.2-2.2-.6.1-1.2.5-1.5,1-.9,1.2-1.5,2.6-1.9,4-.2.5-.3,1.1-.4,1.6h4.2c.2-.6.3-1.1.4-1.7.3-.9.4-1.8.4-2.7h0Z"/>
    <path class="uuid-65fc0126-97ab-455a-a15e-7a19418feb22" d="m475.1,102.5h.6c.1.1.3.3.6.5,2.7,2.4,4,5.9,4,10.5,0,1.6-.2,3.3-.6,4.9-.6,2.1-1.7,4.1-3.3,5.6l-.4.3-.3.2h-.6s-.1-.1-.1-.2.1-.1.2-.3c2.3-2.4,3.4-5.9,3.4-10.4,0-4.6-1.1-8.1-3.4-10.4-.1-.1-.2-.2-.2-.3,0-.2,0-.3.1-.4Z"/>
</svg>